<?xml version="1.0" encoding="UTF-8"?>
<svg id="Ebene_1" xmlns="http://www.w3.org/2000/svg" version="1.1" viewBox="0 0 766.1 179.9">
  <!-- Generator: Adobe Illustrator 29.8.1, SVG Export Plug-In . SVG Version: 2.1.1 Build 2)  -->
  <defs>
    <style>
      .st0 {
        fill: #fff;
      }
    </style>
  </defs>
  <path class="st0" d="M95.8,92c0,10.7-3.6,14.8-11.1,14.8s-11.3-4.2-11.3-15.1v-48.1h-28.9v51.4c0,27.2,15.8,39.4,40.2,39.4s39.9-13,39.9-39.4v-51.4h-28.9v48.5Z"/>
  <path class="st0" d="M180.9,81.4l-21-37.8h-29.3v89.1h27.2c0-14.6,0-31.9-1.1-48.6l27.4,48.6h23.4V43.6h-27.1c0,11.3,0,24.2.5,37.8Z"/>
  <polygon class="st0" points="371.6 92.2 355.7 43.6 325 43.6 356.7 132.6 384.1 132.6 415.8 43.6 386.5 43.6 371.6 92.2"/>
  <polygon class="st0" points="419.9 132.6 473.6 132.6 473.6 109.7 448.8 109.7 448.8 98.5 471.1 98.5 471.1 76.9 448.8 76.9 448.8 66.5 473.6 66.5 473.6 43.6 419.9 43.6 419.9 132.6"/>
  <rect class="st0" x="479.6" y="43.6" width="28.9" height="89.1"/>
  <polygon class="st0" points="543.3 43.6 514.4 43.6 514.4 132.6 571.7 132.6 571.7 108.6 543.3 108.6 543.3 43.6"/>
  <polygon class="st0" points="576.4 132.6 630.1 132.6 630.1 109.7 605.3 109.7 605.3 98.5 627.5 98.5 627.5 76.9 605.3 76.9 605.3 66.5 630.1 66.5 630.1 43.6 576.4 43.6 576.4 132.6"/>
  <path class="st0" d="M673.1,43.6h-37v89.1h37c29,0,48.5-18.1,48.5-44.8s-19.5-44.3-48.5-44.3ZM670.8,108.6h-5.9v-41.1h5.9c13.6,0,20.9,6.7,20.9,20.5s-7.3,20.6-20.9,20.6Z"/>
  <path class="st0" d="M227.5,132.6c0,0,39.3,2.6,39.3-38.7v-50.4h-39.3v89.1Z"/>
  <path class="st0" d="M272.8,94c0,41.3,39.2,38.7,39.3,38.7V43.6h-39.3v50.4Z"/>
</svg>