<?xml version="1.0" encoding="UTF-8"?>
<svg id="Ebene_1" xmlns="http://www.w3.org/2000/svg" version="1.1" viewBox="0 0 766.1 179.9">
  <!-- Generator: Adobe Illustrator 29.8.1, SVG Export Plug-In . SVG Version: 2.1.1 Build 2)  -->
  <path d="M95.8,93c0,10.7-3.6,14.8-11.1,14.8s-11.3-4.2-11.3-15.1v-48.1h-28.9v51.4c0,27.2,15.8,39.4,40.2,39.4s39.9-13,39.9-39.4v-51.4h-28.9v48.5Z"/>
  <path d="M180.9,82.3l-21-37.8h-29.3v89.1h27.2c0-14.6,0-31.9-1.1-48.6l27.4,48.6h23.4V44.5h-27.1c0,11.3,0,24.2.5,37.8Z"/>
  <polygon points="371.6 93.1 355.7 44.5 325 44.5 356.7 133.6 384.1 133.6 415.8 44.5 386.5 44.5 371.6 93.1"/>
  <polygon points="419.9 133.6 473.6 133.6 473.6 110.7 448.8 110.7 448.8 99.5 471.1 99.5 471.1 77.9 448.8 77.9 448.8 67.4 473.6 67.4 473.6 44.5 419.9 44.5 419.9 133.6"/>
  <rect x="479.6" y="44.5" width="28.9" height="89.1"/>
  <polygon points="543.3 44.5 514.4 44.5 514.4 133.6 571.7 133.6 571.7 109.5 543.3 109.5 543.3 44.5"/>
  <polygon points="576.4 133.6 630.1 133.6 630.1 110.7 605.3 110.7 605.3 99.5 627.5 99.5 627.5 77.9 605.3 77.9 605.3 67.4 630.1 67.4 630.1 44.5 576.4 44.5 576.4 133.6"/>
  <path d="M673.1,44.5h-37v89.1h37c29,0,48.5-18.1,48.5-44.8s-19.5-44.3-48.5-44.3ZM670.8,109.5h-5.9v-41.1h5.9c13.6,0,20.9,6.7,20.9,20.5s-7.3,20.6-20.9,20.6Z"/>
  <path d="M227.5,133.6c0,0,39.3,2.6,39.3-38.7v-50.4h-39.3v89.1Z"/>
  <path d="M272.8,94.9c0,41.3,39.2,38.7,39.3,38.7V44.5h-39.3v50.4Z"/>
</svg>